<svg width="1440" height="960" viewBox="0 0 1440 960" fill="none" xmlns="http://www.w3.org/2000/svg">
  <rect width="1440" height="960" fill="#EEF2F6"/>
  <text x="48" y="64" fill="#0F766E" font-family="Arial" font-size="16" font-weight="700">FORGE 2</text>
  <text x="48" y="112" fill="#172033" font-family="Arial" font-size="44" font-weight="700">Forge 2 Launch Board</text>
  <text x="48" y="148" fill="#586174" font-family="Arial" font-size="18">Demo Kanban board for planning and tracking product work.</text>
  <rect x="1110" y="76" width="92" height="38" rx="19" fill="#FFFFFF" stroke="#D7DEE8"/>
  <text x="1132" y="101" fill="#445066" font-family="Arial" font-size="14" font-weight="700">1 board</text>
  <rect x="1214" y="76" width="116" height="38" rx="19" fill="#FFFFFF" stroke="#D7DEE8"/>
  <text x="1234" y="101" fill="#445066" font-family="Arial" font-size="14" font-weight="700">3 members</text>
  <rect x="48" y="198" width="420" height="620" rx="8" fill="#F8FAFC" stroke="#D8E0EA"/>
  <rect x="510" y="198" width="420" height="620" rx="8" fill="#F8FAFC" stroke="#D8E0EA"/>
  <rect x="972" y="198" width="420" height="620" rx="8" fill="#F8FAFC" stroke="#D8E0EA"/>
  <text x="72" y="236" fill="#172033" font-family="Arial" font-size="20" font-weight="700">Todo</text>
  <text x="534" y="236" fill="#172033" font-family="Arial" font-size="20" font-weight="700">Doing</text>
  <text x="996" y="236" fill="#172033" font-family="Arial" font-size="20" font-weight="700">Done</text>
  <rect x="72" y="266" width="372" height="172" rx="8" fill="#FFFFFF" stroke="#FCA5A5"/>
  <rect x="72" y="266" width="5" height="172" fill="#DC2626"/>
  <rect x="92" y="288" width="54" height="24" rx="12" fill="#FEF3C7"/>
  <text x="105" y="305" fill="#B45309" font-family="Arial" font-size="12" font-weight="700">Ops</text>
  <text x="92" y="340" fill="#172033" font-family="Arial" font-size="18" font-weight="700">Finalize production deployment checklist</text>
  <text x="92" y="374" fill="#5C6678" font-family="Arial" font-size="14">Confirm Render/Railway env vars and health checks.</text>
  <circle cx="108" cy="410" r="17" fill="#2563EB"/>
  <text x="98" y="416" fill="#FFFFFF" font-family="Arial" font-size="12" font-weight="700">MC</text>
  <text x="326" y="416" fill="#DC2626" font-family="Arial" font-size="14" font-weight="700">Overdue</text>
  <rect x="72" y="462" width="372" height="164" rx="8" fill="#FFFFFF" stroke="#D8E0EA"/>
  <rect x="92" y="484" width="76" height="24" rx="12" fill="#DBEAFE"/>
  <text x="107" y="501" fill="#2563EB" font-family="Arial" font-size="12" font-weight="700">Feature</text>
  <rect x="176" y="484" width="70" height="24" rx="12" fill="#F3E8FF"/>
  <text x="193" y="501" fill="#9333EA" font-family="Arial" font-size="12" font-weight="700">Design</text>
  <text x="92" y="536" fill="#172033" font-family="Arial" font-size="18" font-weight="700">Polish card editing workflow</text>
  <text x="92" y="570" fill="#5C6678" font-family="Arial" font-size="14">Edit title, description, due date, member, and labels.</text>
  <circle cx="108" cy="602" r="17" fill="#059669"/>
  <text x="99" y="608" fill="#FFFFFF" font-family="Arial" font-size="12" font-weight="700">SR</text>
  <rect x="534" y="266" width="372" height="164" rx="8" fill="#FFFFFF" stroke="#D8E0EA"/>
  <rect x="554" y="288" width="76" height="24" rx="12" fill="#DBEAFE"/>
  <text x="569" y="305" fill="#2563EB" font-family="Arial" font-size="12" font-weight="700">Feature</text>
  <text x="554" y="340" fill="#172033" font-family="Arial" font-size="18" font-weight="700">Implement API integration</text>
  <text x="554" y="374" fill="#5C6678" font-family="Arial" font-size="14">Wire board loading and mutations to Laravel.</text>
  <circle cx="570" cy="406" r="17" fill="#DC2626"/>
  <text x="560" y="412" fill="#FFFFFF" font-family="Arial" font-size="12" font-weight="700">AS</text>
  <rect x="996" y="266" width="372" height="164" rx="8" fill="#FFFFFF" stroke="#D8E0EA"/>
  <rect x="1016" y="288" width="76" height="24" rx="12" fill="#DBEAFE"/>
  <text x="1031" y="305" fill="#2563EB" font-family="Arial" font-size="12" font-weight="700">Feature</text>
  <text x="1016" y="340" fill="#172033" font-family="Arial" font-size="18" font-weight="700">Create initial board schema</text>
  <text x="1016" y="374" fill="#5C6678" font-family="Arial" font-size="14">Boards, lists, cards, tags, and members are modeled.</text>
  <circle cx="1032" cy="406" r="17" fill="#2563EB"/>
  <text x="1022" y="412" fill="#FFFFFF" font-family="Arial" font-size="12" font-weight="700">MC</text>
</svg>
